<svg xmlns="http://www.w3.org/2000/svg" width="50" height="50" viewBox="0 0 50 50">
  <g fill="none" fill-rule="evenodd" transform="translate(1 1)">
    <circle cx="24" cy="24" r="24" stroke="#E53026" stroke-width="2"/>
    <path fill="#E53026" fill-rule="nonzero" d="M15.792,28 L12.324,23.992 L12.324,28 L9.888,28 L9.888,19.744 L12.204,19.744 L15.672,23.812 L15.672,19.744 L18.108,19.744 L18.108,28 L15.792,28 Z M19.987571,19.744 L27.127571,19.744 L27.127571,21.724 L22.639571,21.724 L22.639571,22.864 L26.479571,22.864 L26.479571,24.76 L22.639571,24.76 L22.639571,26.02 L27.211571,26.02 L27.211571,28 L19.987571,28 L19.987571,19.744 Z M34.959142,28 L33.891142,22.972 L33.843142,22.972 L32.775142,28 L29.859142,28 L27.927142,19.744 L30.687142,19.744 L31.635142,24.424 L31.683142,24.424 L32.619142,19.744 L35.235142,19.744 L36.231142,24.424 L36.279142,24.424 L37.167142,19.744 L39.807142,19.744 L37.875142,28 L34.959142,28 Z"/>
  </g>
</svg>
