<svg xmlns="http://www.w3.org/2000/svg" width="104" height="56" viewBox="0 0 104 56">
  <g fill="none" fill-rule="evenodd">
    <polygon fill="#000" points="0 56 104 56 104 0 0 0"/>
    <polygon fill="#FFF" points="38.52 27.299 31.211 27.299 31.211 17.937 25.841 27.299 21.062 27.299 15.692 17.937 15.692 27.299 8.383 27.299 8.383 7.62 17.379 7.62 23.452 18.865 29.524 7.62 38.52 7.62"/>
    <polygon fill="#FFF" points="55.078 16.897 66.408 27.299 56.287 27.299 49.99 21.058 46.954 23.56 46.954 27.299 39.645 27.299 39.645 7.62 46.954 7.62 46.954 15.323 56.006 7.62 66.408 7.62"/>
    <polygon fill="#FFF" points="80.14 27.299 87.449 27.299 87.449 7.62 80.14 7.62"/>
    <polygon fill="#FFF" points="88.336 27.299 95.645 27.299 95.645 7.62 88.336 7.62"/>
    <g fill="#FFF" transform="translate(8 28)">
      <path d="M7.4308,13.155 C7.4308,14.1106 8.3328,14.7574 12.9836,14.7574 C17.3244,14.7574 17.9728,14.4762 17.9728,13.7454 C17.9728,12.9018 17.3244,12.7894 12.7016,12.6486 C3.7944,12.3674 0.384,10.9058 0.384,6.3238 C0.384,1.9942 4.64,0.1386 12.42,0.1386 C20.1152,0.1386 24.456,1.9942 24.456,7.0262 L17.1272,7.0262 C17.1272,5.9862 15.436,5.7614 11.856,5.7614 C8.4172,5.7614 7.7124,5.9302 7.7124,6.689 C7.7124,7.4478 8.4172,7.4198 12.7016,7.5886 C20.4816,7.8978 25.302,8.4318 25.302,13.5766 C25.302,19.0022 20.7916,20.3798 12.7016,20.3798 C4.612,20.3798 0.102,19.0022 0.102,13.155 L7.4308,13.155 Z"/>
      <polygon points="64.683 .42 58.216 20.099 47.365 20.099 44.132 8.769 40.899 20.099 30.047 20.099 23.581 .42 31.425 .42 35.501 14.307 39.774 .42 48.489 .42 52.763 14.307 56.839 .42"/>
      <path d="M75.13492,9.3878 L87.89812,9.3878 L87.89812,20.0986 L83.68132,20.0986 L83.14732,17.2594 C81.48852,19.199 78.90212,20.3798 74.76972,20.3798 C67.51652,20.3798 63.24332,17.091 63.24332,10.231 C63.24332,3.3994 67.51652,0.1386 75.61292,0.1386 C83.48452,0.1386 87.58932,2.8938 87.89812,8.263 L80.42052,8.263 C80.13932,7.251 78.70532,6.3238 75.61292,6.3238 C71.28372,6.3238 70.55292,8.151 70.55292,10.5122 C70.55292,12.9018 71.31172,15.0386 75.61292,15.0386 C78.42452,15.0386 80.13932,14.645 80.42052,13.3238 L75.13492,13.3238 L75.13492,9.3878 Z"/>
    </g>
  </g>
</svg>
