<svg xmlns="http://www.w3.org/2000/svg" width="116" height="64" viewBox="0 0 116 64">
  <g fill="none" fill-rule="evenodd">
    <polygon fill="#FFF" points="0 64 115.2 64 115.2 0 0 0" transform="matrix(1 0 0 -1 0 64)"/>
    <path fill="#000CBE" d="M13.248,21.886592 C21.4562133,21.886592 26.0864,23.8658987 26.0864,29.2333653 L18.2690133,29.2333653 C18.2690133,28.1566595 16.5696207,27.8991026 12.978118,27.8848836 L12.6464,27.8842453 C8.97834667,27.8842453 8.22656,28.0642987 8.22656,28.8736853 C8.22656,29.683072 8.97834667,29.6532053 13.5483733,29.8332587 C21.84704,30.163072 26.9888,30.732672 26.9888,36.2204587 C26.9888,42.0077653 22.1777067,43.4772053 13.5483733,43.4772053 C4.91946667,43.4772053 0.1088,42.0077653 0.1088,35.770752 L7.92618667,35.770752 C7.92618667,36.7678998 8.84694281,37.4498265 13.5312775,37.4790042 L13.8491733,37.4799787 C18.47936,37.4799787 19.1709867,37.180032 19.1709867,36.400512 C19.1709867,35.500672 18.47936,35.3807787 13.5483733,35.230592 C4.04736,34.9306453 0.4096,33.3716053 0.4096,28.4841387 C0.4096,23.8658987 4.94933333,21.886592 13.248,21.886592 Z M80.6537813,21.886592 C89.0501547,21.886592 93.428608,24.825472 93.7579947,30.5526187 L85.781888,30.5526187 C85.4819413,29.473152 83.9523413,28.084139 80.6537813,28.084139 C76.035968,28.084139 75.256448,30.433152 75.256448,32.9517653 C75.256448,35.500672 76.0658347,37.7799253 80.6537813,37.7799253 C83.6528213,37.7799253 85.4819413,37.3600853 85.781888,35.9508053 L80.1439147,35.9508053 L80.1439147,31.7524053 L93.7579947,31.7524053 L93.7579947,43.1772587 L89.2600747,43.1772587 L88.6904747,40.1487787 C86.921088,42.2176853 84.1622613,43.4772053 79.754368,43.4772053 C72.0176213,43.4772053 67.4595413,39.969152 67.4595413,32.6518187 C67.4595413,25.3647787 72.0176213,21.886592 80.6537813,21.886592 Z M33.5195307,22.1865813 L37.8681173,37.0000213 L42.4257707,22.1865813 L51.721984,22.1865813 L56.280064,37.0000213 L60.628224,22.1865813 L68.9947307,22.1865813 L62.0972373,43.1773013 L50.522624,43.1773013 L47.0738773,31.0923947 L43.6255573,43.1773013 L32.0505173,43.1773013 L25.1534507,22.1865813 L33.5195307,22.1865813 Z M10.0045653,-3.16360694e-14 L16.481792,11.99488 L22.9590187,-3.16360694e-14 L32.554752,-3.16360694e-14 L32.554752,20.99072 L24.758272,20.99072 L24.758272,11.0050133 L19.0306987,20.99072 L13.9328853,20.99072 L8.205312,11.0050133 L8.205312,20.99072 L0.408832,20.99072 L0.408832,-3.16360694e-14 L10.0045653,-3.16360694e-14 Z M41.5510187,4.26666666e-05 L41.5510187,8.21636267 L51.2064853,4.26666666e-05 L62.301952,4.26666666e-05 L50.2170453,9.89572267 L62.301952,20.9907627 L51.506432,20.9907627 L44.7894187,14.3334827 L41.5510187,17.0022827 L41.5510187,20.9907627 L33.7545387,20.9907627 L33.7545387,4.26666666e-05 L41.5510187,4.26666666e-05 Z M84.7453867,8.53333333e-05 L84.7453867,20.9908053 L76.9489067,20.9908053 L76.9489067,8.53333333e-05 L84.7453867,8.53333333e-05 Z M93.4877867,8.53333333e-05 L93.4877867,20.9908053 L85.6913067,20.9908053 L85.6913067,8.53333333e-05 L93.4877867,8.53333333e-05 Z" transform="translate(10.667 10.261)"/>
  </g>
</svg>
