<svg xmlns="http://www.w3.org/2000/svg" width="40" height="40" viewBox="0 0 40 40">
  <g fill="none" fill-rule="evenodd">
    <rect width="40" height="40" fill="#000" rx="20"/>
    <path fill="#FFF" fill-rule="nonzero" d="M19.94,5.87733333 C19.8913333,4.81266667 19.7226667,4.086 19.4753333,3.45 C19.22,2.79266667 18.878,2.23466667 18.322,1.67866667 C17.766,1.12266667 17.2086667,0.780666667 16.5506667,0.525333333 C15.9146667,0.278 15.1873333,0.109333333 14.1233333,0.0606666667 C13.0566667,0.0113333333 12.716,0 10,0 C7.284,0 6.94333333,0.0113333333 5.87733333,0.06 C4.81266667,0.108666667 4.086,0.277333333 3.45,0.524666667 C2.79266667,0.78 2.23466667,1.122 1.67866667,1.678 C1.12266667,2.234 0.780666667,2.79133333 0.525333333,3.44933333 C0.278,4.08533333 0.109333333,4.81266667 0.0606666667,5.87666667 C0.0113333333,6.94333333 0,7.284 0,10 C0,12.716 0.0113333333,13.0566667 0.06,14.1226667 C0.108666667,15.1873333 0.277333333,15.914 0.524666667,16.55 C0.78,17.2073333 1.122,17.7653333 1.678,18.3213333 C2.234,18.8773333 2.79133333,19.2193333 3.44933333,19.4746667 C4.08533333,19.722 4.81266667,19.8906667 5.87666667,19.9393333 C6.94333333,19.9886667 7.284,20 10,20 C12.716,20 13.0566667,19.9886667 14.1226667,19.94 C15.1873333,19.8913333 15.914,19.7226667 16.55,19.4753333 C17.2073333,19.22 17.7653333,18.878 18.3213333,18.322 C18.8773333,17.766 19.2193333,17.2086667 19.4746667,16.5506667 C19.722,15.9146667 19.8906667,15.1873333 19.9393333,14.1233333 C19.9886667,13.0566667 20,12.716 20,10 C20,7.284 19.9886667,6.94333333 19.94,5.87733333 Z M18.14,14.0406667 C18.0953333,15.0153333 17.9326667,15.5453333 17.796,15.8973333 C17.6146667,16.364 17.398,16.6973333 17.048,17.0473333 C16.698,17.3973333 16.3646667,17.614 15.898,17.7953333 C15.5453333,17.932 15.016,18.0953333 14.0413333,18.1393333 C12.9873333,18.1873333 12.6706667,18.1973333 10.0006667,18.1973333 C7.33066667,18.1973333 7.014,18.1873333 5.96,18.1393333 C4.98533333,18.0946667 4.45533333,17.932 4.10333333,17.7953333 C3.63666667,17.614 3.30333333,17.3973333 2.95333333,17.0473333 C2.60333333,16.6973333 2.38666667,16.364 2.20533333,15.8973333 C2.06866667,15.5446667 1.90533333,15.0153333 1.86133333,14.0406667 C1.81333333,12.986 1.80333333,12.67 1.80333333,10 C1.80333333,7.33 1.81333333,7.01333333 1.86133333,5.95933333 C1.906,4.98466667 2.06866667,4.45466667 2.20533333,4.10266667 C2.38666667,3.636 2.60333333,3.30266667 2.95333333,2.95266667 C3.30333333,2.60266667 3.63666667,2.386 4.10333333,2.20466667 C4.456,2.068 4.98533333,1.90466667 5.96,1.86066667 C7.01466667,1.81266667 7.33066667,1.80266667 10.0006667,1.80266667 C12.6706667,1.80266667 12.9873333,1.81266667 14.0413333,1.86066667 C15.016,1.90533333 15.546,2.068 15.898,2.20466667 C16.3646667,2.386 16.698,2.60266667 17.048,2.95266667 C17.398,3.30266667 17.6146667,3.636 17.796,4.10266667 C17.9326667,4.45533333 18.096,4.98466667 18.14,5.95933333 C18.188,7.014 18.198,7.33 18.198,10 C18.198,12.67 18.188,12.9866667 18.14,14.0406667 Z M10,4.86466667 C7.164,4.86466667 4.86466667,7.164 4.86466667,10 C4.86466667,12.836 7.164,15.1353333 10,15.1353333 C12.836,15.1353333 15.1353333,12.836 15.1353333,10 C15.1353333,7.164 12.836,4.86466667 10,4.86466667 Z M10,13.3333333 C8.15933333,13.3333333 6.66666667,11.8406667 6.66666667,10 C6.66666667,8.15933333 8.15933333,6.66666667 10,6.66666667 C11.8406667,6.66666667 13.3333333,8.15933333 13.3333333,10 C13.3333333,11.8406667 11.8406667,13.3333333 10,13.3333333 Z M15.338,3.462 C14.6753333,3.462 14.138,3.99933333 14.138,4.662 C14.138,5.32466667 14.6753333,5.862 15.338,5.862 C16.0006667,5.862 16.538,5.32466667 16.538,4.662 C16.538,3.99933333 16.0006667,3.462 15.338,3.462 Z" transform="translate(10 10)"/>
  </g>
</svg>
