<svg xmlns="http://www.w3.org/2000/svg" width="40" height="40" viewBox="0 0 40 40">
  <g fill="none" fill-rule="evenodd">
    <rect width="40" height="40" fill="#000" rx="20"/>
    <path fill="#FFF" fill-rule="nonzero" d="M30,14.6573846 C29.330625,14.9384615 28.617375,15.1247692 27.87375,15.2152308 C28.63875,14.778 29.222625,14.0909231 29.497125,13.2627692 C28.783875,13.6698462 27.996375,13.9573846 27.157125,14.1178462 C26.479875,13.4275385 25.514625,13 24.461625,13 C22.418625,13 20.773875,14.5873846 20.773875,16.5333846 C20.773875,16.8133846 20.798625,17.0826154 20.859375,17.3389231 C17.7915,17.1956923 15.076875,15.7881538 13.25325,13.644 C12.934875,14.1727692 12.748125,14.778 12.748125,15.4295385 C12.748125,16.6529231 13.40625,17.7373846 14.38725,18.3652308 C13.794375,18.3544615 13.21275,18.1896923 12.72,17.9301538 C12.72,17.9409231 12.72,17.9549231 12.72,17.9689231 C12.72,19.6855385 13.999125,21.1113846 15.6765,21.4398462 C15.376125,21.5184615 15.04875,21.5561538 14.709,21.5561538 C14.47275,21.5561538 14.23425,21.5432308 14.010375,21.4958462 C14.4885,22.8947692 15.84525,23.9232308 17.4585,23.9566154 C16.203,24.8967692 14.608875,25.4632308 12.883125,25.4632308 C12.5805,25.4632308 12.29025,25.4503077 12,25.4147692 C13.634625,26.4238462 15.571875,27 17.661,27 C24.4515,27 28.164,21.6153846 28.164,16.948 C28.164,16.7918462 28.158375,16.6410769 28.1505,16.4913846 C28.882875,15.9938462 29.49825,15.3724615 30,14.6573846 Z"/>
  </g>
</svg>
