<svg xmlns="http://www.w3.org/2000/svg" width="344" height="66" viewBox="0 0 344 66">
  <g fill="none" stroke="#E53026" transform="translate(1 1)">
    <polygon points="61.406 64 25.336 32.93 25.336 64 0 64 0 0 24.088 0 60.158 31.535 60.158 0 85.494 0 85.494 64"/>
    <polygon points="96.039 0 170.3 0 170.3 15.349 123.621 15.349 123.621 24.186 163.56 24.186 163.56 38.884 123.621 38.884 123.621 48.651 171.173 48.651 171.173 64 96.039 64"/>
    <polygon points="251.578 64 240.47 25.023 239.97 25.023 228.862 64 198.534 64 178.44 0 207.146 0 217.006 36.279 217.505 36.279 227.24 0 254.448 0 264.807 36.279 265.306 36.279 274.542 0 302 0 281.906 64"/>
  </g>
</svg>
