<svg xmlns="http://www.w3.org/2000/svg" width="480" height="66" viewBox="0 0 480 66">
  <path fill="none" stroke="#E53026" d="M38.8051779,1 C49.4766552,1 58.2481546,2.60298022 65.1199392,5.80898876 C71.9917238,9.0149973 75.5084079,13.7640135 75.670097,20.0561798 L75.670097,21.1348315 L50.5679975,21.1348315 L50.5679975,20.7752809 C50.5679975,18.9775191 49.678721,17.4794067 47.9001415,16.2808989 C46.121562,15.082391 43.413311,14.4831461 39.7753074,14.4831461 C36.2181483,14.4831461 33.4896865,14.8726553 31.5898402,15.6516854 C29.6899938,16.4307155 28.7400849,17.3895074 28.7400849,18.5280899 C28.7400849,20.1460755 30.0335779,21.3445654 32.6206027,22.1235955 C35.2076275,22.9026256 39.3710581,23.7116063 45.1110193,24.5505618 C51.8211149,25.5692935 57.338671,26.6329533 61.663853,27.741573 C65.9890351,28.8501928 69.76846,30.6629088 73.002241,33.1797753 C76.236022,35.6966418 77.8933099,39.112338 77.9741544,43.4269663 C77.9741544,50.7378643 74.6393678,56.161031 67.9696945,59.6966292 C61.3000212,63.2322274 52.387046,65 41.2305015,65 C28.214533,65 18.0889082,63.3820387 10.8533232,60.1460674 C3.61773822,56.9100962 0,51.187307 0,42.9775281 L25.3446318,42.9775281 C25.3446318,46.0936485 26.4360165,48.1760247 28.6188187,49.2247191 C30.8016209,50.2734135 34.19704,50.7977528 38.8051779,50.7977528 C42.200648,50.7977528 45.0099531,50.5280926 47.2331775,49.988764 C49.4564019,49.4494355 50.5679975,48.3408324 50.5679975,46.6629213 C50.5679975,45.1647865 49.335137,44.0412022 46.869379,43.2921348 C44.403621,42.5430674 40.3816662,41.7490679 34.803394,40.9101124 C28.0124539,39.8314553 22.3938437,38.707871 17.9473948,37.5393258 C13.5009459,36.3707807 9.62046693,34.4382157 6.30584141,31.741573 C2.99121589,29.0449303 1.33392799,25.3895362 1.33392799,20.7752809 C1.33392799,14.0037115 4.8708229,9.0149973 11.9447188,5.80898876 C19.0186148,2.60298022 27.9720116,1 38.8051779,1 Z M137.895631,17.8988764 L137.895631,63.9213483 L111.095805,63.9213483 L111.095805,17.8988764 L83.6896477,17.8988764 L83.6896477,2.07865169 L165.180521,2.07865169 L165.180521,17.8988764 L137.895631,17.8988764 Z M215.063542,1 C229.453868,1 240.569823,3.72656449 248.411742,9.17977528 C256.253661,14.6329861 260.174562,22.5729816 260.174562,33 C260.174562,43.4270184 256.253661,51.3670139 248.411742,56.8202247 C240.569823,62.2734355 229.453868,65 215.063542,65 C200.673217,65 189.577472,62.2884166 181.775976,56.8651685 C173.974479,51.4419204 170.073789,43.4869438 170.073789,33 C170.073789,22.5130562 173.974479,14.5580796 181.775976,9.13483146 C189.577472,3.71158337 200.673217,1 215.063542,1 Z M215.063542,15.8314607 C209.323581,15.8314607 204.958042,17.1198373 201.966795,19.6966292 C198.975548,22.2734211 197.479946,25.7490418 197.479946,30.1235955 L197.479946,35.8764045 C197.479946,40.2509582 198.975548,43.7265789 201.966795,46.3033708 C204.958042,48.8801627 209.323581,50.1685393 215.063542,50.1685393 C220.803504,50.1685393 225.189253,48.8801627 228.220923,46.3033708 C231.252593,43.7265789 232.768405,40.2509582 232.768405,35.8764045 L232.768405,30.1235955 C232.768405,25.7490418 231.252593,22.2734211 228.220923,19.6966292 C225.189253,17.1198373 220.803504,15.8314607 215.063542,15.8314607 Z M347.555471,21.0449438 C347.555471,24.8202436 346.181135,28.2359398 343.432421,31.2921348 C340.683707,34.3483299 336.681963,36.5954984 331.427069,38.0337079 L349.980794,63.9213483 L319.906782,63.9213483 L305.112308,41.3595506 L295.168481,41.3595506 L295.168481,63.9213483 L268.368655,63.9213483 L268.368655,2.07865169 L319.421717,2.07865169 C325.404212,2.07865169 330.517551,2.93257573 334.761889,4.64044944 C339.006226,6.34832315 342.199537,8.65541618 344.341917,11.5617978 C346.484297,14.4681793 347.555471,17.6291964 347.555471,21.0449438 Z M320.27058,21.8539326 C320.27058,20.235947 319.54299,18.8876458 318.087789,17.8089888 C316.632587,16.7303317 314.854035,16.1910112 312.752077,16.1910112 L295.168481,16.1910112 L295.168481,27.6067416 L312.752077,27.6067416 C314.854035,27.6067416 316.632587,27.05244 318.087789,25.9438202 C319.54299,24.8352004 320.27058,23.4719182 320.27058,21.8539326 Z M405.379397,63.9213483 L378.579571,63.9213483 L378.579571,39.9213483 L345.473904,2.07865169 L376.275514,2.07865169 L392.28265,22.6629213 L392.767714,22.6629213 L408.77485,2.07865169 L438,2.07865169 L405.379397,39.9213483 L405.379397,63.9213483 Z"/>
</svg>
